HIERARCHY
ROOT Hips
{
  OFFSET -213.699 104.721 0.752556
  CHANNELS 6 Xposition Yposition Zposition Zrotation Xrotation Yrotation
  JOINT RightUpLeg
  {
    OFFSET -8.9458 -8.66707 0.101652
    CHANNELS 3 Zrotation Xrotation Yrotation
    JOINT RightLeg
    {
      OFFSET 0 -44.4227 1.3727
      CHANNELS 3 Zrotation Xrotation Yrotation
      JOINT RightFoot
      {
        OFFSET 0.253549 -42.0924 -1.46059
        CHANNELS 3 Zrotation Xrotation Yrotation
        JOINT RightToes
        {
          OFFSET 0.04 -4.41509 8.4991
          CHANNELS 3 Zrotation Xrotation Yrotation
          End Site
          {
            OFFSET -0.08 -0.137448 9.77979
          }
        }
      }
    }
  }
  JOINT Spine
  {
    OFFSET 0 11.8905 0
    CHANNELS 3 Zrotation Xrotation Yrotation
    JOINT Spine1
    {
      OFFSET 0 25.6574 0.127663
      CHANNELS 3 Zrotation Xrotation Yrotation
      JOINT HEad
      {
        OFFSET 0 8.73416 0.011341
        CHANNELS 3 Zrotation Xrotation Yrotation
        End Site
        {
          OFFSET -0.29 12.7742 2.51395
        }
      }
      JOINT LeftShoulder1
      {
        OFFSET 8.99 -0.362252 -0.22
        CHANNELS 3 Zrotation Xrotation Yrotation
        JOINT LeftArm
        {
          OFFSET 10.2827 -0.00337999 0.322123
          CHANNELS 3 Zrotation Xrotation Yrotation
          JOINT LeftForeArm
          {
            OFFSET 26.2597 0.099144 -1.42434
            CHANNELS 3 Zrotation Xrotation Yrotation
            JOINT LeftHand
            {
              OFFSET 22.0902 0.085362 1.02216
              CHANNELS 3 Zrotation Xrotation Yrotation
              End Site
              {
                OFFSET 13.419 -0.6 1.50291
              }
            }
          }
        }
      }
      JOINT RightShoulder
      {
        OFFSET -8.99 -0.362252 -0.22
        CHANNELS 3 Zrotation Xrotation Yrotation
        JOINT RightArm
        {
          OFFSET -10.2827 -0.00338 0.322123
          CHANNELS 3 Zrotation Xrotation Yrotation
          JOINT RightForeArm
          {
            OFFSET -26.364 0.099144 -1.42434
            CHANNELS 3 Zrotation Xrotation Yrotation
            JOINT RightHand
            {
              OFFSET -22.0324 0.085362 1.02216
              CHANNELS 3 Zrotation Xrotation Yrotation
              End Site
              {
                OFFSET -13.3284 -0.6 1.50291
              }
            }
          }
        }
      }
    }
  }
  JOINT LeftUpLeg
  {
    OFFSET 8.9458 -8.66707 0.101652
    CHANNELS 3 Zrotation Xrotation Yrotation
    JOINT LeftLeg
    {
      OFFSET 0 -44.4227 1.3727
      CHANNELS 3 Zrotation Xrotation Yrotation
      JOINT LeftFoot
      {
        OFFSET -0.253549 -42.0924 -1.46059
        CHANNELS 3 Zrotation Xrotation Yrotation
        JOINT LeftToes
        {
          OFFSET -0.04 -4.41509 8.4991
          CHANNELS 3 Zrotation Xrotation Yrotation
          End Site
          {
            OFFSET 0.08 -0.047448 9.77979
          }
        }
      }
    }
  }
}
MOTION
Frames:	8
Frame Time:	0.0333333
204.008 101.186 -7.26044 -2.12557 1.25692 -83.2644 -2.77384 -10.2536 4.12823 -3.37194 14.9155 10.2576 11.4536 -3.04599 -0.605937 0.0462048 0.000530889 0.662642 -7.50626 6.00928 -1.40488 3.18788 5.87161 -2.53113 2.39856 16.6231 -3.81549 -30.4934 -3.74946 13.7395 -75.3153 -41.4994 -37.3356 -173.495 63.1955 172.908 9.95981 8.7452 -9.21463 29.9042 -1.30066 -7.72145 46.8231 -5.2831 17.9508 1.42418 42.4977 17.5684 -1.60705 9.83749 3.64471 -1.53537 -7.30516 0.248188 2.17287 19.1463 3.64265 5.87429 -8.84192 0.0992887 -1.30973e-009 8.75268e-006 -1.47588e-008 
204.336 101.417 -6.63372 -2.21284 1.70572 -85.6121 -1.9726 -9.96504 3.49968 -2.71359 15.5921 5.18413 10.0241 -3.89427 -0.479429 0.0462048 0.000530889 0.662642 -7.33032 5.72472 -1.25367 3.41522 5.97847 -2.39946 1.90192 17.1273 -2.90635 -30.3481 -3.69538 13.6323 -75.3049 -42.1021 -37.5797 -173.697 62.4119 173.636 10.1246 8.71974 -9.27632 30.1848 -1.34663 -7.81548 47.213 -6.14781 17.8537 1.99304 43.6855 16.8019 -1.71646 9.82757 3.83972 -1.34246 -6.53831 0.789142 1.97232 17.7484 5.47652 6.30156 -8.21993 0.0656378 -1.30973e-009 8.75268e-006 -1.47588e-008 
204.548 101.652 -6.08993 -2.21961 2.01262 -87.6148 -1.29219 -9.47671 3.07702 -2.20547 16.5286 0.371617 8.02286 -4.94541 -0.346069 0.0462048 0.000530889 0.662642 -7.26162 5.15174 -1.16463 3.67799 6.39736 -2.33963 1.65271 17.6132 -2.16222 -30.4638 -3.80544 13.8993 -75.3153 -42.4763 -38.0446 -173.614 62.4943 173.904 10.1394 8.77759 -8.52425 30.3531 -1.39927 -7.94057 47.5967 -6.9184 17.7262 2.30076 45.0728 16.2743 -2.28475 9.78327 3.75168 -1.36882 -5.6547 1.03124 1.82822 16.0563 7.27341 6.39486 -7.43464 0.0170169 -1.30973e-009 8.75268e-006 -1.47588e-008 
204.668 101.809 -5.67957 -2.08144 2.24973 -89.2653 -0.49267 -8.96059 2.90534 -1.73051 17.5956 -3.82048 6.16299 -6.1325 -0.244035 0.0462048 0.000530889 0.662642 -7.06896 4.62212 -1.18288 3.64807 6.3923 -2.31104 1.47238 18.0676 -1.52388 -30.5114 -3.88183 14.093 -74.7989 -43.1089 -37.9164 -173.464 62.8605 173.95 9.98849 8.81384 -8.30031 30.4448 -1.36127 -7.82487 47.7643 -6.81505 17.2624 2.46922 45.3318 16.0962 -1.99915 9.80859 3.45312 -1.2424 -5.03715 1.29142 1.61035 14.6402 8.71642 6.53017 -6.90231 -0.0173023 -1.30973e-009 8.75268e-006 -1.47588e-008 
204.731 101.947 -5.3315 -1.92524 2.51613 -90.6084 0.239488 -8.28677 2.39149 -1.33736 18.7137 -5.9918 5.00412 -7.31485 -0.184518 0.0462048 0.000530889 0.662642 -6.62543 4.03749 -1.21176 3.3823 6.44006 -2.22259 1.46517 18.1906 -1.15847 -30.2824 -3.77923 13.8784 -74.4604 -43.9648 -37.4801 -173.261 63.3348 174.083 9.99656 8.81695 -8.24344 30.8114 -1.43396 -7.98001 47.4712 -6.69256 17.0828 2.98231 46.0408 15.566 -1.91643 9.81573 3.31689 -1.16305 -4.45305 1.39656 1.48288 13.261 9.92602 6.82318 -6.44671 -0.0493108 -1.30973e-009 8.75268e-006 -1.47588e-008 
204.802 102.056 -5.06787 -1.70454 2.6044 -91.7528 0.98532 -7.80494 2.38514 -1.08763 20.093 -6.68959 4.16936 -8.32861 -0.151426 0.0462048 0.000530889 0.662642 -6.52471 3.65864 -1.15079 3.57693 6.27424 -2.15988 1.17135 18.258 -0.733304 -30.6563 -3.9152 14.1435 -73.7142 -44.1087 -37.2662 -173.145 63.7555 173.741 9.98541 8.84452 -7.90657 30.6438 -1.41706 -7.95418 47.64 -7.1276 16.8817 3.14527 47.0841 15.2415 -1.75117 9.82925 3.15142 -1.21689 -4.17208 1.36782 1.40554 12.3088 11.1129 6.97391 -6.0199 -0.0796096 -1.30973e-009 8.75268e-006 -1.47588e-008 
204.868 102.144 -4.92972 -1.52068 2.89258 -92.7207 2.16164 -7.19417 3.10241 -0.981415 21.2487 -6.79748 3.86084 -8.98249 -0.134964 0.0462048 0.000530889 0.662642 -6.18756 3.28329 -1.06151 3.6486 6.29621 -2.04431 1.11189 18.5115 -0.363892 -30.6569 -3.89633 14.0913 -73.6728 -44.456 -37.0473 -173.136 63.7233 173.907 11.0691 8.68777 -8.2705 30.6059 -1.46571 -8.09105 48.4905 -9.81716 17.2988 4.11485 50.4248 13.6862 -1.93986 9.8135 3.41458 -1.04711 -4.16284 1.36842 1.45308 11.9904 12.107 6.95529 -5.87077 -0.0894262 -1.30973e-009 8.75268e-006 -1.47588e-008 
204.962 102.126 -4.86841 -1.19086 2.83609 -93.6784 2.99937 -6.58361 3.89794 -0.962589 21.4538 -6.15273 4.22277 -9.02879 -0.130381 0.0462048 0.000530889 0.662642 -6.20881 2.79467 -1.00793 3.60681 6.37699 -1.95468 0.852132 18.7137 0.371796 -30.8621 -4.03518 14.4075 -73.5556 -44.4862 -37.1217 -173.155 63.6709 173.919 10.9764 8.69388 -8.32247 30.49 -1.40576 -7.94185 48.716 -9.84071 17.3916 4.14089 50.4631 13.6372 -1.81657 9.82787 2.66747 -1.19227 -4.62869 1.19836 1.53525 12.2271 13.2326 6.85927 -5.88116 -0.0872078 -1.30973e-009 8.75268e-006 -1.47588e-008 
